<?xml version="1.0" encoding="utf-8"?>
<!-- Generator: Adobe Illustrator 14.0.0, SVG Export Plug-In . SVG Version: 6.00 Build 43363)  -->
<!DOCTYPE svg PUBLIC "-//W3C//DTD SVG 1.0//EN" "http://www.w3.org/TR/2001/REC-SVG-20010904/DTD/svg10.dtd">
<svg version="1.0" id="Ebene_1" xmlns="http://www.w3.org/2000/svg" xmlns:xlink="http://www.w3.org/1999/xlink" x="0px" y="0px"
	 width="595.28px" height="329px" viewBox="0 0 595.28 329" enable-background="new 0 0 595.28 329" xml:space="preserve">
<g>
	<path d="M159.938,212.47v-68.707h50.291v68.707h33.763V54.987h-33.763v59.971h-50.291V54.987h-33.763V212.47H159.938z
		 M304.436,212.47v-87.36h17.235v-21.249h-17.235V91.347c0-5.194,0.236-8.972,0.944-11.097c1.181-3.541,4.25-5.194,8.972-5.194
		c2.361,0,5.194,0.236,8.499,0.708V52.153c-8.263-0.472-12.984-0.708-13.692-0.708c-20.306,0-32.112,8.028-35.653,24.319
		c-0.944,4.25-1.417,10.389-1.417,18.417v9.681h-13.931v21.249h13.931v87.36H304.436z M399.111,212.47V83.792h38.486V54.987H327.099
		v28.805h38.249V212.47H399.111z M549.038,212.47v-29.277h-61.859V54.987h-33.763V212.47H549.038z"/>
	<polyline fill="#536A22" points="37.793,212.803 113.859,133.485 37.793,54.167 	"/>
	<path d="M38.25,258.327v-10.686h10.752v10.686h1.985v-22.066h-1.985v9.661H38.25v-9.661h-1.986v22.066H38.25z M56.182,245.16
		c-1.025,1.423-1.522,3.308-1.522,5.558c0,2.316,0.53,4.234,1.588,5.724c1.158,1.555,2.746,2.349,4.797,2.349
		c2.051,0,3.64-0.794,4.797-2.349c1.059-1.489,1.587-3.407,1.587-5.724c0-1.323-0.165-2.481-0.529-3.54
		c-0.463-1.423-1.191-2.514-2.184-3.309c-1.059-0.827-2.25-1.224-3.573-1.224C58.994,242.646,57.34,243.473,56.182,245.16
		L56.182,245.16z M64.321,245.921c0.86,1.19,1.29,2.811,1.29,4.796s-0.43,3.573-1.257,4.797c-0.793,1.159-1.886,1.754-3.309,1.754
		c-1.422,0-2.514-0.595-3.308-1.754c-0.827-1.224-1.258-2.812-1.258-4.797s0.431-3.573,1.291-4.796
		c0.827-1.159,1.886-1.754,3.209-1.754C62.369,244.167,63.494,244.763,64.321,245.921L64.321,245.921z M79.209,255.515
		c-0.728,1.159-1.72,1.754-3.01,1.754c-1.356,0-2.416-0.595-3.176-1.754c-0.794-1.224-1.192-2.812-1.192-4.797
		s0.397-3.573,1.225-4.796c0.761-1.159,1.819-1.754,3.176-1.754c1.125,0,2.052,0.43,2.747,1.323c0.33,0.431,0.596,1.059,0.794,1.885
		h1.853c-0.231-1.158-0.662-2.117-1.29-2.878c-1.026-1.224-2.416-1.853-4.103-1.853c-2.084,0-3.639,0.827-4.763,2.481
		c-0.96,1.489-1.457,3.341-1.457,5.591c0,2.316,0.529,4.234,1.555,5.724c1.091,1.555,2.614,2.349,4.632,2.349
		c1.984,0,3.474-0.761,4.5-2.316c0.596-0.926,0.959-1.919,1.059-3.044h-1.854C79.772,254.258,79.54,254.952,79.209,255.515
		L79.209,255.515z M86.951,258.327v-7.609c0-1.092,0.033-1.952,0.133-2.514c0.165-1.092,0.529-1.952,1.092-2.647
		c0.794-0.926,1.753-1.389,2.944-1.389c0.695,0,1.291,0.166,1.787,0.529c0.464,0.298,0.827,0.728,0.993,1.225
		c0.298,0.761,0.431,1.885,0.431,3.44v8.966h1.819v-9.561c0-0.96-0.066-1.721-0.166-2.283c-0.198-1.191-0.694-2.117-1.488-2.778
		c-0.827-0.696-1.82-1.059-3.011-1.059c-1.985,0-3.507,0.959-4.533,2.845v-9.23h-1.819v22.066H86.951z M100.549,257.037
		c0.959,1.159,2.349,1.754,4.203,1.754c1.587,0,2.844-0.463,3.771-1.324c0.894-0.86,1.323-1.886,1.323-3.176
		c0-1.356-0.53-2.448-1.588-3.275c-0.529-0.397-1.654-0.86-3.407-1.356c-1.225-0.331-2.051-0.662-2.481-0.959
		c-0.629-0.463-0.96-1.092-0.96-1.886c0-0.761,0.265-1.39,0.794-1.919c0.529-0.497,1.291-0.761,2.217-0.761
		c1.753,0,2.779,0.894,3.11,2.68h1.82c-0.133-0.893-0.364-1.621-0.761-2.15c-0.926-1.357-2.349-2.018-4.235-2.018
		c-1.456,0-2.646,0.463-3.507,1.356c-0.794,0.761-1.191,1.72-1.191,2.845c0,1.323,0.529,2.349,1.587,3.109
		c0.596,0.431,1.457,0.794,2.515,1.092c1.621,0.431,2.614,0.761,3.011,1.026c0.827,0.529,1.257,1.291,1.257,2.25
		c0,0.893-0.297,1.621-0.926,2.184c-0.563,0.496-1.356,0.761-2.316,0.761c-1.158,0-2.084-0.397-2.746-1.158
		c-0.431-0.562-0.695-1.257-0.828-2.084h-1.819C99.557,255.283,99.921,256.276,100.549,257.037L100.549,257.037z M121.427,255.515
		c-0.729,1.159-1.721,1.754-3.011,1.754c-1.356,0-2.416-0.595-3.177-1.754c-0.794-1.224-1.191-2.812-1.191-4.797
		s0.397-3.573,1.225-4.796c0.761-1.159,1.819-1.754,3.176-1.754c1.125,0,2.051,0.43,2.746,1.323
		c0.332,0.431,0.596,1.059,0.794,1.885h1.852c-0.23-1.158-0.662-2.117-1.29-2.878c-1.025-1.224-2.415-1.853-4.103-1.853
		c-2.084,0-3.64,0.827-4.765,2.481c-0.958,1.489-1.455,3.341-1.455,5.591c0,2.316,0.529,4.234,1.555,5.724
		c1.092,1.555,2.613,2.349,4.632,2.349c1.984,0,3.474-0.761,4.499-2.316c0.596-0.926,0.96-1.919,1.059-3.044h-1.852
		C121.989,254.258,121.757,254.952,121.427,255.515L121.427,255.515z M129.169,258.327v-7.609c0-1.092,0.032-1.952,0.132-2.514
		c0.165-1.092,0.529-1.952,1.091-2.647c0.795-0.926,1.754-1.389,2.945-1.389c0.695,0,1.291,0.166,1.787,0.529
		c0.463,0.298,0.827,0.728,0.992,1.225c0.298,0.761,0.43,1.885,0.43,3.44v8.966h1.82v-9.561c0-0.96-0.065-1.721-0.166-2.283
		c-0.198-1.191-0.695-2.117-1.489-2.778c-0.827-0.696-1.819-1.059-3.01-1.059c-1.985,0-3.508,0.959-4.533,2.845v-9.23h-1.82v22.066
		H129.169z M151.798,243.108v7.609c0,1.092-0.033,1.952-0.132,2.515c-0.165,1.092-0.529,1.952-1.092,2.646
		c-0.761,0.926-1.753,1.39-2.944,1.39c-0.695,0-1.29-0.166-1.786-0.529c-0.463-0.298-0.828-0.728-0.993-1.225
		c-0.298-0.761-0.431-1.885-0.431-3.44v-8.966h-1.819v9.562c0,0.926,0.066,1.687,0.166,2.282c0.231,1.191,0.728,2.117,1.489,2.78
		c0.827,0.694,1.82,1.059,3.011,1.059c2.052,0,3.573-1.025,4.631-3.043v2.58h1.721v-15.219H151.798z M159.938,258.327v-22.066
		h-1.819v22.066H159.938z M173.304,244.134c-1.026-0.993-2.25-1.489-3.672-1.489c-1.753,0-3.208,0.728-4.366,2.217
		c-1.159,1.488-1.754,3.44-1.754,5.855c0,2.283,0.497,4.169,1.522,5.624c1.125,1.622,2.681,2.449,4.731,2.449
		c1.887,0,3.342-0.728,4.4-2.184c0.563-0.761,0.959-1.687,1.191-2.746h-1.753c-0.695,2.283-1.985,3.408-3.838,3.408
		c-1.687,0-2.944-0.827-3.705-2.481c-0.463-0.959-0.695-2.184-0.728-3.639h10.256C175.586,247.906,174.826,245.557,173.304,244.134
		L173.304,244.134z M165.331,249.692c0.199-1.984,0.761-3.474,1.688-4.433c0.727-0.761,1.621-1.159,2.613-1.159
		c0.662,0,1.225,0.166,1.753,0.497c0.662,0.431,1.225,1.026,1.622,1.853c0.43,0.86,0.662,1.952,0.728,3.242H165.331z
		 M187.762,258.327V244.63h2.647v-1.522h-2.647v-2.647c0-1.323,0.133-2.15,0.397-2.513c0.298-0.365,0.695-0.563,1.158-0.563
		c0.53,0,0.993,0.099,1.423,0.33v-1.654c-0.662-0.199-1.191-0.298-1.588-0.298c-1.257,0-2.15,0.53-2.746,1.588
		c-0.297,0.596-0.463,1.687-0.463,3.341v2.415h-2.216v1.522h2.216v13.697H187.762z M202.221,243.108v7.609
		c0,1.092-0.033,1.952-0.133,2.515c-0.165,1.092-0.53,1.952-1.091,2.646c-0.761,0.926-1.753,1.39-2.945,1.39
		c-0.695,0-1.29-0.166-1.786-0.529c-0.463-0.298-0.828-0.728-0.993-1.225c-0.297-0.761-0.43-1.885-0.43-3.44v-8.966h-1.82v9.562
		c0,0.926,0.066,1.687,0.166,2.282c0.231,1.191,0.727,2.117,1.488,2.78c0.827,0.694,1.819,1.059,3.011,1.059
		c2.051,0,3.572-1.025,4.632-3.043v2.58h1.72v-15.219H202.221z M201.823,240.461v-3.076h-1.852v3.076H201.823z M197.092,240.461
		v-3.076h-1.853v3.076H197.092z M210.294,258.327v-6.22c0-1.257,0.033-2.151,0.099-2.779c0.133-1.257,0.497-2.25,1.026-3.043
		c0.827-1.159,1.919-1.754,3.242-1.754c0.133,0,0.331,0,0.562,0v-1.885c-2.448-0.066-4.102,1.191-5.028,3.771v-3.309h-1.72v15.219
		H210.294z M230.608,237.98h6.418v-1.72h-14.822v1.72h6.418v20.347h1.985V237.98z M248.639,244.134
		c-1.026-0.993-2.25-1.489-3.672-1.489c-1.754,0-3.209,0.728-4.368,2.217c-1.158,1.488-1.753,3.44-1.753,5.855
		c0,2.283,0.497,4.169,1.522,5.624c1.125,1.622,2.68,2.449,4.731,2.449c1.885,0,3.341-0.728,4.4-2.184
		c0.561-0.761,0.958-1.687,1.19-2.746h-1.753c-0.695,2.283-1.985,3.408-3.837,3.408c-1.688,0-2.945-0.827-3.706-2.481
		c-0.463-0.959-0.694-2.184-0.728-3.639h10.256C250.922,247.906,250.161,245.557,248.639,244.134L248.639,244.134z M240.666,249.692
		c0.199-1.984,0.761-3.474,1.687-4.433c0.728-0.761,1.621-1.159,2.615-1.159c0.661,0,1.223,0.166,1.753,0.497
		c0.662,0.431,1.224,1.026,1.621,1.853c0.43,0.86,0.661,1.952,0.728,3.242H240.666z M256.315,258.327v-22.066h-1.82v22.066H256.315z
		 M269.682,244.134c-1.026-0.993-2.25-1.489-3.672-1.489c-1.754,0-3.209,0.728-4.367,2.217c-1.158,1.488-1.753,3.44-1.753,5.855
		c0,2.283,0.496,4.169,1.521,5.624c1.125,1.622,2.68,2.449,4.731,2.449c1.886,0,3.342-0.728,4.4-2.184
		c0.563-0.761,0.959-1.687,1.191-2.746h-1.753c-0.695,2.283-1.985,3.408-3.838,3.408c-1.687,0-2.944-0.827-3.705-2.481
		c-0.463-0.959-0.695-2.184-0.728-3.639h10.256C271.964,247.906,271.204,245.557,269.682,244.134L269.682,244.134z M261.708,249.692
		c0.198-1.984,0.761-3.474,1.688-4.433c0.728-0.761,1.621-1.159,2.614-1.159c0.662,0,1.224,0.166,1.753,0.497
		c0.662,0.431,1.224,1.026,1.621,1.853c0.43,0.86,0.661,1.952,0.728,3.242H261.708z M277.291,258.327v-6.253l2.151-2.051
		l5.624,8.304h2.084l-6.419-9.495l6.088-5.724h-2.25l-7.279,6.848v-13.696h-1.819v22.066H277.291z"/>
	<path d="M289.043,245.16c-1.026,1.423-1.522,3.308-1.522,5.558c0,2.316,0.529,4.234,1.588,5.724
		c1.158,1.555,2.746,2.349,4.797,2.349c2.052,0,3.64-0.794,4.798-2.349c1.059-1.489,1.588-3.407,1.588-5.724
		c0-1.323-0.165-2.481-0.529-3.54c-0.463-1.423-1.19-2.514-2.184-3.309c-1.06-0.827-2.251-1.224-3.573-1.224
		C291.855,242.646,290.201,243.473,289.043,245.16L289.043,245.16z M297.182,245.921c0.858,1.19,1.289,2.811,1.289,4.796
		s-0.431,3.573-1.257,4.797c-0.794,1.159-1.887,1.754-3.309,1.754s-2.515-0.595-3.309-1.754c-0.827-1.224-1.256-2.812-1.256-4.797
		s0.43-3.573,1.29-4.796c0.828-1.159,1.887-1.754,3.21-1.754C295.23,244.167,296.354,244.763,297.182,245.921L297.182,245.921z
		 M305.619,258.327v-7.609c0-1.092,0.032-1.952,0.099-2.514c0.165-1.092,0.464-1.952,0.96-2.614
		c0.662-0.959,1.555-1.422,2.614-1.422c0.595,0,1.124,0.166,1.587,0.529c0.464,0.332,0.762,0.728,0.927,1.225
		c0.265,0.761,0.397,1.885,0.397,3.44v8.966h1.819v-7.609c0-1.092,0.032-1.918,0.099-2.514c0.166-1.092,0.464-1.952,0.96-2.614
		c0.662-0.959,1.522-1.422,2.58-1.422c0.596,0,1.125,0.166,1.589,0.529c0.463,0.332,0.761,0.728,0.926,1.225
		c0.265,0.761,0.397,1.918,0.397,3.44v8.966h1.819v-9.561c0-0.926-0.033-1.688-0.132-2.283c-0.231-1.191-0.695-2.117-1.423-2.778
		c-0.794-0.696-1.721-1.059-2.846-1.059c-1.919,0-3.374,1.059-4.366,3.209c-0.729-2.15-2.052-3.209-3.971-3.209
		c-1.853,0-3.209,1.025-4.136,3.043v-2.581h-1.72v15.219H305.619z M328.514,258.327v-7.609c0-1.092,0.032-1.952,0.099-2.514
		c0.167-1.092,0.464-1.952,0.96-2.614c0.661-0.959,1.555-1.422,2.613-1.422c0.596,0,1.125,0.166,1.588,0.529
		c0.463,0.332,0.762,0.728,0.927,1.225c0.265,0.761,0.396,1.885,0.396,3.44v8.966h1.82v-7.609c0-1.092,0.033-1.918,0.099-2.514
		c0.166-1.092,0.464-1.952,0.961-2.614c0.66-0.959,1.521-1.422,2.579-1.422c0.596,0,1.125,0.166,1.588,0.529
		c0.464,0.332,0.761,0.728,0.927,1.225c0.265,0.761,0.396,1.918,0.396,3.44v8.966h1.82v-9.561c0-0.926-0.033-1.688-0.133-2.283
		c-0.232-1.191-0.695-2.117-1.422-2.778c-0.795-0.696-1.721-1.059-2.846-1.059c-1.919,0-3.376,1.059-4.367,3.209
		c-0.729-2.15-2.052-3.209-3.97-3.209c-1.853,0-3.21,1.025-4.136,3.043v-2.581h-1.721v15.219H328.514z M358.688,243.108v7.609
		c0,1.092-0.034,1.952-0.133,2.515c-0.167,1.092-0.529,1.952-1.093,2.646c-0.761,0.926-1.752,1.39-2.944,1.39
		c-0.694,0-1.289-0.166-1.785-0.529c-0.464-0.298-0.828-0.728-0.993-1.225c-0.297-0.761-0.43-1.885-0.43-3.44v-8.966h-1.819v9.562
		c0,0.926,0.065,1.687,0.165,2.282c0.231,1.191,0.728,2.117,1.487,2.78c0.829,0.694,1.82,1.059,3.012,1.059
		c2.052,0,3.573-1.025,4.631-3.043v2.58h1.721v-15.219H358.688z M366.76,258.327v-7.609c0-1.092,0.033-1.952,0.134-2.514
		c0.164-1.092,0.528-1.952,1.09-2.647c0.795-0.926,1.755-1.389,2.945-1.389c0.695,0,1.29,0.166,1.787,0.529
		c0.463,0.298,0.826,0.728,0.992,1.225c0.298,0.761,0.43,1.885,0.43,3.44v8.966h1.82v-9.561c0-0.96-0.066-1.721-0.166-2.283
		c-0.198-1.191-0.695-2.117-1.489-2.778c-0.826-0.696-1.818-1.059-3.01-1.059c-2.019,0-3.573,1.025-4.633,3.043v-2.581h-1.719
		v15.219H366.76z M382.178,239.337v-3.076h-1.819v3.076H382.178z M382.178,258.327v-15.219h-1.819v15.219H382.178z M388.498,258.327
		v-6.253l2.15-2.051l5.624,8.304h2.085l-6.419-9.495l6.088-5.724h-2.25l-7.278,6.848v-13.696h-1.818v22.066H388.498z
		 M411.956,256.938c-0.364,0-0.596-0.133-0.695-0.43c-0.065-0.231-0.099-0.794-0.099-1.721v-5.756c0-1.125-0.034-1.886-0.067-2.25
		c-0.1-0.992-0.363-1.753-0.794-2.349c-0.893-1.191-2.249-1.787-4.103-1.787c-1.72,0-3.043,0.496-4.003,1.455
		c-0.858,0.86-1.324,2.118-1.389,3.706h1.688c0.198-2.415,1.39-3.639,3.507-3.639c2.216,0,3.341,1.224,3.341,3.705v1.423
		c-1.555,0.033-2.712,0.099-3.408,0.166c-1.687,0.165-2.977,0.596-3.903,1.257c-1.224,0.86-1.819,2.117-1.819,3.705
		c0,1.39,0.463,2.515,1.422,3.342c0.794,0.694,1.754,1.025,2.879,1.025c2.084,0,3.771-1.158,5.063-3.44v0.562
		c0,0.694,0.065,1.224,0.231,1.588c0.264,0.661,0.794,0.993,1.555,0.993c0.43,0,0.859-0.099,1.289-0.265v-1.457
		C412.385,256.872,412.154,256.938,411.956,256.938L411.956,256.938z M409.341,251.545c0,0.628-0.099,1.323-0.331,2.117
		c-0.297,1.059-0.826,1.919-1.555,2.581c-0.728,0.694-1.589,1.025-2.548,1.025c-0.827,0-1.488-0.265-2.05-0.827
		c-0.563-0.563-0.828-1.257-0.828-2.084c0-0.86,0.298-1.587,0.927-2.216c0.529-0.497,1.29-0.86,2.315-1.092
		c0.893-0.198,2.25-0.331,4.069-0.43V251.545z M415.728,244.63v9.561c0,1.688,0.132,2.78,0.363,3.243
		c0.431,0.86,1.323,1.29,2.613,1.29c0.497,0,1.025-0.099,1.588-0.265v-1.522c-0.463,0.132-0.893,0.199-1.224,0.199
		c-0.695,0-1.158-0.265-1.357-0.794c-0.098-0.298-0.165-0.959-0.165-1.951v-9.76h2.746v-1.522h-2.746v-4.83h-0.33l-1.488,1.985
		v2.845h-2.284v1.522H415.728z M425.124,239.337v-3.076h-1.821v3.076H425.124z M425.124,258.327v-15.219h-1.821v15.219H425.124z
		 M430.218,245.16c-1.025,1.423-1.522,3.308-1.522,5.558c0,2.316,0.53,4.234,1.589,5.724c1.158,1.555,2.747,2.349,4.797,2.349
		c2.051,0,3.64-0.794,4.798-2.349c1.059-1.489,1.589-3.407,1.589-5.724c0-1.323-0.166-2.481-0.53-3.54
		c-0.464-1.423-1.192-2.514-2.184-3.309c-1.059-0.827-2.25-1.224-3.574-1.224C433.032,242.646,431.376,243.473,430.218,245.16
		L430.218,245.16z M438.357,245.921c0.859,1.19,1.291,2.811,1.291,4.796s-0.432,3.573-1.257,4.797
		c-0.795,1.159-1.887,1.754-3.31,1.754s-2.514-0.595-3.308-1.754c-0.827-1.224-1.258-2.812-1.258-4.797s0.431-3.573,1.29-4.796
		c0.827-1.159,1.886-1.754,3.209-1.754C436.405,244.167,437.53,244.763,438.357,245.921L438.357,245.921z M446.794,258.327v-7.609
		c0-1.092,0.033-1.952,0.132-2.514c0.165-1.092,0.53-1.952,1.091-2.647c0.795-0.926,1.755-1.389,2.946-1.389
		c0.694,0,1.289,0.166,1.787,0.529c0.462,0.298,0.826,0.728,0.991,1.225c0.298,0.761,0.43,1.885,0.43,3.44v8.966h1.82v-9.561
		c0-0.96-0.066-1.721-0.165-2.283c-0.198-1.191-0.695-2.117-1.489-2.778c-0.826-0.696-1.819-1.059-3.011-1.059
		c-2.018,0-3.572,1.025-4.632,3.043v-2.581h-1.721v15.219H446.794z M479.052,258.327v-1.721h-10.19v-20.346h-1.983v22.066H479.052z
		 M490.731,244.134c-1.024-0.993-2.249-1.489-3.672-1.489c-1.753,0-3.209,0.728-4.368,2.217c-1.157,1.488-1.753,3.44-1.753,5.855
		c0,2.283,0.497,4.169,1.521,5.624c1.126,1.622,2.681,2.449,4.732,2.449c1.886,0,3.341-0.728,4.399-2.184
		c0.563-0.761,0.96-1.687,1.191-2.746h-1.754c-0.694,2.283-1.984,3.408-3.837,3.408c-1.688,0-2.944-0.827-3.706-2.481
		c-0.464-0.959-0.694-2.184-0.728-3.639h10.257C493.015,247.906,492.254,245.557,490.731,244.134L490.731,244.134z M482.758,249.692
		c0.198-1.984,0.761-3.474,1.687-4.433c0.729-0.761,1.622-1.159,2.614-1.159c0.662,0,1.224,0.166,1.754,0.497
		c0.66,0.431,1.224,1.026,1.621,1.853c0.43,0.86,0.662,1.952,0.727,3.242H482.758z M498.408,239.337v-3.076h-1.819v3.076H498.408z
		 M498.408,258.327v-15.219h-1.819v15.219H498.408z M504.727,264.05v-8.237c0.198,0.496,0.496,0.958,0.894,1.389
		c0.959,1.059,2.183,1.588,3.737,1.588c1.82,0,3.275-0.728,4.368-2.184c1.092-1.455,1.62-3.407,1.62-5.856
		c0-2.514-0.562-4.532-1.719-6.021c-1.093-1.39-2.549-2.084-4.335-2.084c-1.489,0-2.679,0.463-3.573,1.39
		c-0.496,0.496-0.894,1.091-1.125,1.753v-2.68h-1.687v20.942H504.727z M512.27,245.888c0.827,1.224,1.258,2.845,1.258,4.863
		c0,1.853-0.365,3.375-1.092,4.566c-0.761,1.29-1.887,1.952-3.341,1.952c-1.324,0-2.384-0.563-3.145-1.654
		c-0.859-1.224-1.289-2.812-1.289-4.864c0-2.746,0.694-4.698,2.116-5.79c0.694-0.529,1.488-0.793,2.317-0.793
		C510.417,244.167,511.475,244.729,512.27,245.888L512.27,245.888z M518.061,243.108v1.522h8.105l-8.734,12.208v1.489h11.281v-1.522
		h-9.165l8.835-12.406v-1.29H518.061z M533.247,239.337v-3.076h-1.819v3.076H533.247z M533.247,258.327v-15.219h-1.819v15.219
		H533.247z M547.242,245.657c-0.894-2.019-2.382-3.011-4.467-3.011c-1.687,0-3.076,0.661-4.202,1.952
		c-1.157,1.324-1.752,3.209-1.752,5.624c0,2.416,0.528,4.334,1.62,5.724c1.125,1.455,2.581,2.183,4.367,2.183
		c1.291,0,2.415-0.496,3.375-1.489c0.43-0.463,0.761-0.959,0.992-1.555v1.753c0,1.655-0.298,2.945-0.86,3.871
		c-0.794,1.224-1.886,1.819-3.375,1.819c-1.157,0-2.083-0.363-2.813-1.092c-0.429-0.463-0.694-1.058-0.858-1.786h-1.886
		c0.231,1.224,0.727,2.216,1.488,2.945c1.059,0.959,2.382,1.455,4.003,1.455c1.521,0,2.812-0.463,3.904-1.356
		c1.025-0.859,1.688-1.951,1.985-3.341c0.165-0.727,0.231-1.786,0.231-3.176v-13.068h-1.754V245.657z M545.984,245.722
		c0.828,1.092,1.226,2.581,1.226,4.466c0,1.158-0.166,2.216-0.464,3.177c-0.364,1.091-0.893,1.918-1.589,2.448
		c-0.694,0.529-1.455,0.793-2.282,0.793c-1.39,0-2.482-0.628-3.209-1.919c-0.695-1.19-1.025-2.712-1.025-4.565
		c0-1.853,0.397-3.309,1.19-4.4c0.762-1.026,1.787-1.555,3.011-1.555C544.165,244.167,545.223,244.696,545.984,245.722
		L545.984,245.722z"/>
	<path d="M36,283.639c0,1.885,0.133,3.342,0.43,4.368c0.496,1.753,1.389,3.076,2.68,3.937c1.224,0.794,2.613,1.191,4.202,1.191
		s2.978-0.397,4.135-1.191c1.158-0.761,1.985-1.952,2.548-3.541c0.364-1.025,0.529-2.58,0.529-4.698v-13.167h-1.984v13.134
		c0,1.588-0.1,2.845-0.298,3.706c-0.331,1.422-0.926,2.448-1.82,3.11c-0.86,0.628-1.886,0.926-3.077,0.926
		c-1.257,0-2.315-0.331-3.242-1.025c-0.893-0.662-1.489-1.688-1.82-3.109c-0.198-0.794-0.297-1.985-0.297-3.574v-13.167H36V283.639z
		 M56.678,292.605v-7.61c0-1.092,0.034-1.952,0.133-2.514c0.166-1.092,0.529-1.952,1.092-2.646c0.793-0.927,1.753-1.39,2.944-1.39
		c0.694,0,1.291,0.165,1.786,0.529c0.463,0.298,0.828,0.728,0.993,1.224c0.297,0.761,0.43,1.886,0.43,3.441v8.966h1.819v-9.562
		c0-0.959-0.066-1.721-0.166-2.283c-0.198-1.191-0.695-2.118-1.488-2.779c-0.827-0.695-1.82-1.06-3.011-1.06
		c-2.018,0-3.573,1.026-4.631,3.044v-2.581h-1.721v15.22H56.678z M72.096,273.614v-3.077h-1.82v3.077H72.096z M72.096,292.605
		v-15.22h-1.82v15.22H72.096z M81.625,292.605l4.896-15.22h-1.852l-3.97,12.771l-4.168-12.771h-1.952l5.128,15.22H81.625z
		 M97.803,278.411c-1.025-0.992-2.249-1.489-3.672-1.489c-1.753,0-3.21,0.729-4.368,2.217c-1.158,1.489-1.753,3.441-1.753,5.856
		c0,2.283,0.496,4.168,1.522,5.625c1.125,1.621,2.679,2.448,4.731,2.448c1.886,0,3.341-0.728,4.4-2.184
		c0.562-0.761,0.958-1.688,1.19-2.746h-1.753c-0.695,2.283-1.985,3.407-3.837,3.407c-1.688,0-2.945-0.827-3.706-2.48
		c-0.463-0.96-0.695-2.184-0.728-3.639h10.256C100.086,282.183,99.325,279.834,97.803,278.411L97.803,278.411z M89.83,283.969
		c0.198-1.984,0.761-3.473,1.687-4.433c0.728-0.761,1.621-1.158,2.614-1.158c0.662,0,1.224,0.166,1.753,0.496
		c0.662,0.43,1.224,1.025,1.621,1.853c0.43,0.859,0.662,1.952,0.728,3.242H89.83z M105.414,292.605v-6.22
		c0-1.257,0.032-2.15,0.099-2.779c0.132-1.258,0.496-2.25,1.026-3.043c0.827-1.158,1.918-1.754,3.242-1.754c0.132,0,0.331,0,0.563,0
		v-1.886c-2.449-0.065-4.103,1.192-5.029,3.772v-3.309h-1.72v15.22H105.414z M112.659,291.314c0.959,1.158,2.349,1.753,4.202,1.753
		c1.587,0,2.845-0.463,3.771-1.324c0.893-0.86,1.323-1.886,1.323-3.176c0-1.356-0.53-2.448-1.588-3.275
		c-0.529-0.397-1.654-0.861-3.408-1.356c-1.224-0.331-2.051-0.662-2.481-0.959c-0.629-0.463-0.96-1.092-0.96-1.886
		c0-0.761,0.265-1.39,0.794-1.919c0.529-0.496,1.291-0.761,2.217-0.761c1.754,0,2.779,0.894,3.11,2.68h1.82
		c-0.133-0.894-0.364-1.621-0.761-2.15c-0.926-1.357-2.35-2.02-4.235-2.02c-1.456,0-2.646,0.463-3.507,1.356
		c-0.794,0.761-1.191,1.721-1.191,2.846c0,1.324,0.529,2.349,1.588,3.11c0.596,0.431,1.456,0.794,2.515,1.092
		c1.621,0.43,2.614,0.761,3.011,1.025c0.827,0.529,1.257,1.29,1.257,2.25c0,0.893-0.298,1.621-0.927,2.183
		c-0.563,0.496-1.356,0.761-2.316,0.761c-1.158,0-2.084-0.396-2.746-1.158c-0.431-0.562-0.695-1.257-0.827-2.084h-1.82
		C111.666,289.561,112.03,290.553,112.659,291.314L112.659,291.314z M127.15,273.614v-3.077h-1.82v3.077H127.15z M127.15,292.605
		v-15.22h-1.82v15.22H127.15z M131.815,278.908v9.562c0,1.688,0.133,2.779,0.364,3.242c0.43,0.86,1.323,1.291,2.613,1.291
		c0.497,0,1.026-0.1,1.589-0.265v-1.522c-0.463,0.132-0.894,0.198-1.224,0.198c-0.695,0-1.158-0.264-1.356-0.793
		c-0.099-0.298-0.166-0.959-0.166-1.952v-9.76h2.746v-1.522h-2.746v-4.83h-0.331l-1.489,1.985v2.844h-2.282v1.522H131.815z
		 M139.954,298.328c0.993,0,1.753-0.298,2.349-0.926c0.463-0.497,0.893-1.324,1.29-2.448l5.79-17.569h-1.853l-3.971,12.639
		l-4.301-12.639h-1.952l5.326,15.087l-0.662,2.051c-0.264,0.827-0.562,1.423-0.893,1.788c-0.298,0.297-0.728,0.429-1.291,0.429
		c-0.265,0-0.562-0.033-0.894-0.131l-0.231-0.066v1.555C139.127,298.262,139.557,298.328,139.954,298.328L139.954,298.328z
		 M158.78,279.437c-1.026,1.422-1.522,3.309-1.522,5.558c0,2.316,0.529,4.235,1.588,5.724c1.158,1.555,2.746,2.349,4.797,2.349
		s3.639-0.794,4.797-2.349c1.059-1.489,1.588-3.408,1.588-5.724c0-1.323-0.166-2.481-0.529-3.54
		c-0.463-1.423-1.191-2.514-2.183-3.308c-1.059-0.827-2.25-1.225-3.573-1.225C161.592,276.922,159.938,277.75,158.78,279.437
		L158.78,279.437z M166.918,280.198c0.86,1.191,1.291,2.813,1.291,4.797c0,1.985-0.43,3.573-1.257,4.797
		c-0.794,1.158-1.886,1.753-3.309,1.753c-1.422,0-2.514-0.595-3.308-1.753c-0.827-1.225-1.258-2.812-1.258-4.797
		c0-1.985,0.431-3.573,1.291-4.797c0.827-1.158,1.886-1.753,3.209-1.753C164.966,278.445,166.092,279.04,166.918,280.198
		L166.918,280.198z M175.819,292.605v-13.697h2.646v-1.522h-2.646v-2.646c0-1.324,0.132-2.15,0.396-2.515
		c0.298-0.364,0.695-0.563,1.158-0.563c0.529,0,0.992,0.1,1.422,0.331v-1.654c-0.662-0.199-1.191-0.297-1.588-0.297
		c-1.257,0-2.15,0.528-2.746,1.588c-0.298,0.595-0.463,1.688-0.463,3.341v2.415h-2.217v1.522H174v13.697H175.819z M185.678,292.605
		h2.084l2.217-6.948h8.271l2.183,6.948h2.15l-7.344-22.067h-2.15L185.678,292.605z M194.147,272.721l3.54,11.248h-7.146
		L194.147,272.721z M206.952,298.328v-8.238c0.198,0.496,0.496,0.96,0.893,1.39c0.959,1.058,2.184,1.588,3.739,1.588
		c1.819,0,3.276-0.728,4.367-2.184c1.091-1.456,1.621-3.408,1.621-5.856c0-2.515-0.562-4.532-1.72-6.021
		c-1.092-1.39-2.548-2.085-4.334-2.085c-1.488,0-2.68,0.463-3.573,1.391c-0.497,0.495-0.894,1.091-1.125,1.753v-2.681h-1.688v20.943
		H206.952z M214.495,280.165c0.827,1.224,1.258,2.845,1.258,4.863c0,1.853-0.364,3.374-1.092,4.565
		c-0.761,1.291-1.886,1.952-3.342,1.952c-1.322,0-2.382-0.563-3.143-1.654c-0.86-1.224-1.29-2.813-1.29-4.863
		c0-2.746,0.694-4.698,2.117-5.79c0.695-0.53,1.488-0.794,2.315-0.794C212.642,278.445,213.701,279.007,214.495,280.165
		L214.495,280.165z M222.899,298.328v-8.238c0.199,0.496,0.497,0.96,0.893,1.39c0.96,1.058,2.184,1.588,3.738,1.588
		c1.82,0,3.276-0.728,4.368-2.184c1.092-1.456,1.621-3.408,1.621-5.856c0-2.515-0.563-4.532-1.721-6.021
		c-1.092-1.39-2.547-2.085-4.334-2.085c-1.488,0-2.679,0.463-3.572,1.391c-0.496,0.495-0.894,1.091-1.125,1.753v-2.681h-1.688
		v20.943H222.899z M230.442,280.165c0.827,1.224,1.257,2.845,1.257,4.863c0,1.853-0.363,3.374-1.091,4.565
		c-0.761,1.291-1.885,1.952-3.342,1.952c-1.323,0-2.382-0.563-3.143-1.654c-0.86-1.224-1.29-2.813-1.29-4.863
		c0-2.746,0.694-4.698,2.117-5.79c0.694-0.53,1.488-0.794,2.315-0.794C228.59,278.445,229.648,279.007,230.442,280.165
		L230.442,280.165z M238.913,292.605v-22.067h-1.819v22.067H238.913z M245.299,273.614v-3.077h-1.82v3.077H245.299z
		 M245.299,292.605v-15.22h-1.82v15.22H245.299z M258.664,278.411c-1.025-0.992-2.25-1.489-3.672-1.489
		c-1.753,0-3.209,0.729-4.367,2.217c-1.158,1.489-1.754,3.441-1.754,5.856c0,2.283,0.496,4.168,1.522,5.625
		c1.125,1.621,2.68,2.448,4.731,2.448c1.886,0,3.342-0.728,4.4-2.184c0.563-0.761,0.96-1.688,1.192-2.746h-1.754
		c-0.695,2.283-1.985,3.407-3.838,3.407c-1.688,0-2.944-0.827-3.706-2.48c-0.463-0.96-0.695-2.184-0.728-3.639h10.256
		C260.947,282.183,260.186,279.834,258.664,278.411L258.664,278.411z M250.691,283.969c0.199-1.984,0.762-3.473,1.688-4.433
		c0.728-0.761,1.621-1.158,2.614-1.158c0.662,0,1.224,0.166,1.753,0.496c0.662,0.43,1.224,1.025,1.621,1.853
		c0.43,0.859,0.662,1.952,0.728,3.242H250.691z M276.001,270.538h-1.819v9.362c-0.199-0.496-0.496-0.958-0.893-1.356
		c-0.993-1.092-2.25-1.622-3.672-1.622c-1.82,0-3.309,0.729-4.434,2.217c-1.092,1.423-1.654,3.375-1.654,5.856
		c0,2.515,0.595,4.533,1.754,5.988c1.125,1.391,2.58,2.085,4.301,2.085c2.183,0,3.771-1.092,4.731-3.275v2.813h1.687V270.538z
		 M272.991,280.099c0.828,1.224,1.257,2.845,1.257,4.93c0,1.985-0.429,3.573-1.257,4.83c-0.794,1.125-1.886,1.687-3.242,1.687
		c-1.323,0-2.382-0.563-3.143-1.72c-0.828-1.191-1.257-2.78-1.257-4.797c0-1.919,0.364-3.474,1.091-4.632
		c0.794-1.29,1.885-1.951,3.275-1.951C271.105,278.445,272.197,279.007,272.991,280.099L272.991,280.099z M287.284,290.653
		c1.323,1.654,3.309,2.481,5.922,2.481c2.151,0,3.872-0.629,5.194-1.886c1.224-1.192,1.819-2.681,1.819-4.466
		c0-2.581-1.356-4.434-4.103-5.558c-0.463-0.166-1.555-0.497-3.209-0.959c-1.621-0.464-2.812-0.96-3.54-1.489
		c-0.926-0.662-1.389-1.655-1.389-2.912c0-1.158,0.397-2.15,1.224-2.912c0.794-0.793,1.918-1.191,3.342-1.191
		c1.688,0,2.943,0.496,3.837,1.521c0.53,0.595,0.894,1.489,1.092,2.647h2.052c-0.166-1.224-0.529-2.25-1.059-3.077
		c-1.291-1.886-3.275-2.812-5.955-2.812c-2.052,0-3.706,0.628-4.93,1.852c-1.058,1.059-1.588,2.382-1.588,3.937
		c0,1.919,0.761,3.408,2.284,4.5c0.793,0.529,2.018,1.026,3.705,1.489c2.283,0.662,3.738,1.158,4.334,1.555
		c1.224,0.793,1.819,1.952,1.819,3.408c0,1.422-0.463,2.547-1.423,3.407c-0.859,0.793-2.084,1.191-3.572,1.191
		c-1.787,0-3.21-0.596-4.235-1.787c-0.695-0.827-1.125-1.886-1.324-3.176h-1.886C285.895,288.138,286.423,289.561,287.284,290.653
		L287.284,290.653z M311.799,289.792c-0.727,1.158-1.72,1.753-3.011,1.753c-1.356,0-2.414-0.595-3.175-1.753
		c-0.795-1.225-1.191-2.812-1.191-4.797c0-1.985,0.396-3.573,1.224-4.797c0.762-1.158,1.82-1.753,3.176-1.753
		c1.126,0,2.052,0.43,2.746,1.323c0.331,0.43,0.596,1.059,0.794,1.886h1.853c-0.231-1.158-0.661-2.117-1.29-2.878
		c-1.025-1.225-2.415-1.854-4.103-1.854c-2.084,0-3.639,0.828-4.764,2.482c-0.959,1.489-1.456,3.341-1.456,5.591
		c0,2.316,0.529,4.235,1.556,5.724c1.091,1.555,2.613,2.349,4.631,2.349c1.986,0,3.475-0.761,4.5-2.316
		c0.596-0.926,0.959-1.918,1.059-3.043h-1.854C312.362,288.535,312.131,289.23,311.799,289.792L311.799,289.792z M319.608,273.614
		v-3.077h-1.819v3.077H319.608z M319.608,292.605v-15.22h-1.819v15.22H319.608z M332.974,278.411
		c-1.025-0.992-2.25-1.489-3.673-1.489c-1.752,0-3.209,0.729-4.366,2.217c-1.158,1.489-1.754,3.441-1.754,5.856
		c0,2.283,0.496,4.168,1.521,5.625c1.126,1.621,2.681,2.448,4.731,2.448c1.886,0,3.342-0.728,4.399-2.184
		c0.563-0.761,0.961-1.688,1.192-2.746h-1.754c-0.694,2.283-1.984,3.407-3.838,3.407c-1.688,0-2.944-0.827-3.705-2.48
		c-0.464-0.96-0.695-2.184-0.729-3.639h10.257C335.257,282.183,334.497,279.834,332.974,278.411L332.974,278.411z M325,283.969
		c0.199-1.984,0.762-3.473,1.688-4.433c0.728-0.761,1.622-1.158,2.613-1.158c0.662,0,1.224,0.166,1.754,0.496
		c0.661,0.43,1.224,1.025,1.621,1.853c0.431,0.859,0.661,1.952,0.729,3.242H325z M340.583,292.605v-7.61
		c0-1.092,0.034-1.952,0.133-2.514c0.166-1.092,0.53-1.952,1.092-2.646c0.795-0.927,1.753-1.39,2.945-1.39
		c0.693,0,1.289,0.165,1.785,0.529c0.464,0.298,0.827,0.728,0.993,1.224c0.297,0.761,0.43,1.886,0.43,3.441v8.966h1.819v-9.562
		c0-0.959-0.065-1.721-0.164-2.283c-0.198-1.191-0.696-2.118-1.489-2.779c-0.827-0.695-1.819-1.06-3.012-1.06
		c-2.018,0-3.572,1.026-4.63,3.044v-2.581h-1.722v15.22H340.583z M362.388,289.792c-0.729,1.158-1.722,1.753-3.012,1.753
		c-1.355,0-2.415-0.595-3.176-1.753c-0.794-1.225-1.191-2.812-1.191-4.797c0-1.985,0.397-3.573,1.225-4.797
		c0.761-1.158,1.818-1.753,3.176-1.753c1.124,0,2.053,0.43,2.746,1.323c0.33,0.43,0.596,1.059,0.793,1.886h1.854
		c-0.23-1.158-0.662-2.117-1.291-2.878c-1.025-1.225-2.414-1.854-4.102-1.854c-2.084,0-3.639,0.828-4.765,2.482
		c-0.959,1.489-1.454,3.341-1.454,5.591c0,2.316,0.528,4.235,1.555,5.724c1.091,1.555,2.612,2.349,4.631,2.349
		c1.985,0,3.474-0.761,4.5-2.316c0.595-0.926,0.959-1.918,1.058-3.043h-1.853C362.949,288.535,362.717,289.23,362.388,289.792
		L362.388,289.792z M377.176,278.411c-1.025-0.992-2.249-1.489-3.672-1.489c-1.754,0-3.21,0.729-4.367,2.217
		c-1.158,1.489-1.753,3.441-1.753,5.856c0,2.283,0.495,4.168,1.521,5.625c1.125,1.621,2.68,2.448,4.73,2.448
		c1.886,0,3.341-0.728,4.4-2.184c0.563-0.761,0.96-1.688,1.191-2.746h-1.755c-0.693,2.283-1.983,3.407-3.837,3.407
		c-1.687,0-2.944-0.827-3.705-2.48c-0.464-0.96-0.694-2.184-0.729-3.639h10.257C379.459,282.183,378.698,279.834,377.176,278.411
		L377.176,278.411z M369.203,283.969c0.199-1.984,0.762-3.473,1.688-4.433c0.729-0.761,1.621-1.158,2.614-1.158
		c0.662,0,1.224,0.166,1.754,0.496c0.66,0.43,1.224,1.025,1.62,1.853c0.43,0.859,0.662,1.952,0.728,3.242H369.203z M383.033,291.314
		c0.959,1.158,2.35,1.753,4.202,1.753c1.589,0,2.845-0.463,3.772-1.324c0.893-0.86,1.323-1.886,1.323-3.176
		c0-1.356-0.53-2.448-1.589-3.275c-0.528-0.397-1.654-0.861-3.407-1.356c-1.225-0.331-2.052-0.662-2.482-0.959
		c-0.628-0.463-0.958-1.092-0.958-1.886c0-0.761,0.264-1.39,0.793-1.919c0.53-0.496,1.291-0.761,2.217-0.761
		c1.754,0,2.778,0.894,3.109,2.68h1.82c-0.132-0.894-0.365-1.621-0.761-2.15c-0.928-1.357-2.35-2.02-4.235-2.02
		c-1.455,0-2.646,0.463-3.507,1.356c-0.794,0.761-1.191,1.721-1.191,2.846c0,1.324,0.529,2.349,1.589,3.11
		c0.595,0.431,1.456,0.794,2.515,1.092c1.62,0.43,2.613,0.761,3.01,1.025c0.827,0.529,1.258,1.29,1.258,2.25
		c0,0.893-0.297,1.621-0.926,2.183c-0.563,0.496-1.357,0.761-2.317,0.761c-1.157,0-2.083-0.396-2.745-1.158
		c-0.431-0.562-0.694-1.257-0.828-2.084h-1.818C382.041,289.561,382.404,290.553,383.033,291.314L383.033,291.314z"/>
</g>
</svg>
